<?xml version="1.0" encoding="UTF-8"?>
<svg xmlns="http://www.w3.org/2000/svg" id="line_icons" data-name="line icons" viewBox="0 0 74 74" width="512" height="512"><path d="M37,56.257C17.973,56.257,2.866,38.4,2.232,37.641a1,1,0,0,1,0-1.282C2.866,35.6,17.973,17.743,37,17.743S71.134,35.6,71.768,36.359a1,1,0,0,1,0,1.282C71.134,38.4,56.027,56.257,37,56.257ZM4.333,37C7.23,40.2,20.894,54.257,37,54.257,53.123,54.257,66.771,40.2,69.667,37,66.77,33.8,53.106,19.743,37,19.743,20.877,19.743,7.229,33.8,4.333,37Z"/><path d="M37,51.59A14.764,14.764,0,1,1,51.764,36.826,14.781,14.781,0,0,1,37,51.59Zm0-27.528A12.764,12.764,0,1,0,49.764,36.826,12.779,12.779,0,0,0,37,24.062Z"/><path d="M37,47.478A10.663,10.663,0,0,1,26.349,36.827c0-.276.02-.547.04-.817a1,1,0,0,1,1.258-.89,7.533,7.533,0,0,0,1.99.262A6.367,6.367,0,0,0,34.6,33.288,7.61,7.61,0,0,0,36.25,27.32a1,1,0,0,1,.247-.8.92.92,0,0,1,.769-.332A10.647,10.647,0,0,1,37,47.478ZM28.362,37.3a8.651,8.651,0,1,0,9.96-9.015A9.459,9.459,0,0,1,36.108,34.6a8.311,8.311,0,0,1-6.471,2.778A9.67,9.67,0,0,1,28.362,37.3Z"/><path d="M5.813,24.522a.988.988,0,0,1-.625-.22A1,1,0,0,1,5.034,22.9C19.987,4.272,43.544,8.824,43.78,8.87a1,1,0,0,1-.4,1.96c-.224-.047-22.611-4.338-36.788,13.318A1,1,0,0,1,5.813,24.522Z"/><path d="M10.78,24.633h-.023l-4.966-.11A1,1,0,0,1,4.814,23.5l.11-4.966a.973.973,0,0,1,1.022-.977,1,1,0,0,1,.977,1.021l-.088,3.967,3.967.088a1,1,0,0,1-.022,2Z"/><path d="M36.947,65.654a38.179,38.179,0,0,1-6.727-.524,1,1,0,0,1,.4-1.96c.223.045,22.611,4.337,36.788-13.318A1,1,0,1,1,68.966,51.1C58.957,63.57,45.091,65.654,36.947,65.654Z"/><path d="M68.077,56.444h-.023a1,1,0,0,1-.977-1.021l.088-3.967L63.2,51.367a1,1,0,0,1,.045-2l4.966.11a1,1,0,0,1,.977,1.022l-.11,4.966A1,1,0,0,1,68.077,56.444Z"/></svg>
